<?xml version="1.0" encoding="utf-8"?>
<!-- Generator: Adobe Illustrator 15.1.0, SVG Export Plug-In . SVG Version: 6.00 Build 0)  -->
<!DOCTYPE svg PUBLIC "-//W3C//DTD SVG 1.1//EN" "http://www.w3.org/Graphics/SVG/1.1/DTD/svg11.dtd">
<svg version="1.1" id="Layer_1" xmlns="http://www.w3.org/2000/svg" xmlns:xlink="http://www.w3.org/1999/xlink" x="0px" y="0px"
	 width="213.293px" height="188.527px" viewBox="0 0 213.293 188.527" enable-background="new 0 0 213.293 188.527"
	 xml:space="preserve">
<g>
	<g>
		<g>
			<path fill="#D5E5F2" d="M6.837,107.687V80.704L205.567,8.329v27.167L34.892,93.071c-0.572,0.192-0.957,0.729-0.956,1.334
				c0.001,0.604,0.388,1.139,0.96,1.33l170.67,56.888v27.575L6.837,107.687z"/>
			<path fill="#2676BA" d="M204.163,10.336v24.151L34.443,91.74c-1.145,0.386-1.914,1.46-1.912,2.667
				c0.002,1.208,0.775,2.279,1.921,2.661l169.71,56.567v24.554L8.242,106.703V81.688L204.163,10.336 M206.972,6.322L5.433,79.721
				v28.948l201.54,73.537V151.61L35.341,94.402l171.631-57.897V6.322L206.972,6.322z"/>
		</g>
	</g>
	
		<rect x="185.038" y="41.698" transform="matrix(0.3224 0.9466 -0.9466 0.3224 169.5504 -147.6801)" fill="#FFFFFF" stroke="#231F20" stroke-width="0.7552" stroke-miterlimit="10" width="5.774" height="5.774"/>
	<g>
		<path fill="#C95E33" d="M206.972,6.322v175.884L5.433,108.669V79.721L206.972,6.322 M206.972,3.513
			c-0.324,0-0.649,0.056-0.962,0.169L4.471,77.08c-1.11,0.404-1.848,1.46-1.848,2.641v28.948c0,1.181,0.738,2.235,1.847,2.64
			l201.54,73.537c0.312,0.114,0.639,0.17,0.963,0.17c0.568,0,1.132-0.173,1.61-0.507c0.752-0.526,1.199-1.386,1.199-2.303V6.322
			c0-0.917-0.447-1.776-1.198-2.302C208.105,3.686,207.541,3.513,206.972,3.513L206.972,3.513z"/>
	</g>
	<circle fill="#C95E33" stroke="#000000" stroke-width="1.4049" stroke-miterlimit="10" cx="5.386" cy="109.167" r="4.682"/>
	<circle fill="#C95E33" stroke="#000000" stroke-width="1.4049" stroke-miterlimit="10" cx="5.386" cy="77.323" r="4.683"/>
	<circle fill="#C95E33" stroke="#000000" stroke-width="1.4049" stroke-miterlimit="10" cx="207.908" cy="183.143" r="4.682"/>
	<circle fill="#C95E33" stroke="#000000" stroke-width="1.4049" stroke-miterlimit="10" cx="207.908" cy="5.385" r="4.682"/>
	<circle fill="#2676BA" stroke="#000000" stroke-width="1.4049" stroke-miterlimit="10" cx="35.341" cy="94.401" r="4.683"/>
	<circle fill="#2676BA" stroke="#000000" stroke-width="1.4049" stroke-miterlimit="10" cx="8.197" cy="106.357" r="4.682"/>
	<circle fill="#2676BA" stroke="#000000" stroke-width="1.4049" stroke-miterlimit="10" cx="8.197" cy="80.133" r="4.683"/>
	<circle fill="#2676BA" stroke="#000000" stroke-width="1.4049" stroke-miterlimit="10" cx="205.099" cy="152.25" r="4.682"/>
	<circle fill="#2676BA" stroke="#000000" stroke-width="1.4049" stroke-miterlimit="10" cx="205.099" cy="35.573" r="4.683"/>
	<circle fill="#2676BA" stroke="#000000" stroke-width="1.4049" stroke-miterlimit="10" cx="205.099" cy="177.524" r="4.682"/>
	<circle fill="#2676BA" stroke="#000000" stroke-width="1.4049" stroke-miterlimit="10" cx="205.099" cy="11.004" r="4.682"/>
	<circle fill="#BA2626" stroke="#FFFFFF" stroke-width="0.7024" stroke-miterlimit="10" cx="189.727" cy="40.921" r="2.34"/>
	<circle fill="#BA2626" stroke="#FFFFFF" stroke-width="0.7024" stroke-miterlimit="10" cx="207.908" cy="94.401" r="2.34"/>
	<g>
		<g>
			<path fill="#FFFFFF" d="M189.727,40.921l17.794,52.745"/>
			<g>
				<g>
					
						<line fill="none" stroke="#BA2626" stroke-width="1.4883" stroke-miterlimit="10" x1="191.434" y1="45.981" x2="207.521" y2="93.666"/>
					<g>
						<polygon fill="#BA2626" points="188.286,48.189 189.747,40.915 195.316,45.817 						"/>
					</g>
				</g>
			</g>
		</g>
	</g>
	<circle fill="#BA2626" stroke="#FFFFFF" stroke-width="0.7024" stroke-miterlimit="10" cx="126.083" cy="126.756" r="2.34"/>
	
		<rect x="118.793" y="146.735" transform="matrix(0.9463 0.3234 -0.3234 0.9463 54.9214 -31.309)" fill="#FFFFFF" stroke="#231F20" stroke-width="0.7552" stroke-miterlimit="10" width="5.774" height="5.773"/>
	<g>
		<g>
			<path fill="#FFFFFF" d="M118.014,151.33l8.069-24.575"/>
			<g>
				<g>
					
						<line fill="none" stroke="#BA2626" stroke-width="1.4883" stroke-miterlimit="10" x1="119.68" y1="146.257" x2="126.083" y2="126.755"/>
					<g>
						<polygon fill="#BA2626" points="123.524,146.376 117.995,151.324 116.474,144.062 						"/>
					</g>
				</g>
			</g>
		</g>
	</g>
	<circle fill="#BA2626" stroke="#FFFFFF" stroke-width="0.7024" stroke-miterlimit="10" cx="118.014" cy="151.331" r="2.34"/>
	
		<rect x="72.306" y="69.087" transform="matrix(0.951 -0.3091 0.3091 0.951 -21.0979 46.276)" fill="none" width="126.365" height="41.264"/>
	<text transform="matrix(0.951 -0.3091 0.3091 0.951 126.6655 84.5938)"><tspan x="0" y="0" font-family="'Helvetica'" font-size="18.1239">H(</tspan><tspan x="19.123" y="0" fill="#C95E33" font-family="'Helvetica'" font-size="18.1239">A</tspan><tspan x="31.212" y="-0.001" font-family="'Helvetica'" font-size="18.1239">,</tspan><tspan x="36.246" y="-0.001" fill="#2676BA" font-family="'Helvetica'" font-size="18.1239">B</tspan><tspan x="48.335" y="0" font-family="'Helvetica'" font-size="18.1239">) = </tspan><tspan x="8.043" y="18.123" font-family="'Helvetica'" font-size="18.1239">h(</tspan><tspan x="24.158" y="18.123" fill="#C95E33" font-family="'Helvetica'" font-size="18.1239">A</tspan><tspan x="36.246" y="18.124" font-family="'Helvetica'" font-size="18.1239">,</tspan><tspan x="41.282" y="18.124" fill="#2676BA" font-family="'Helvetica'" font-size="18.1239">B</tspan><tspan x="53.37" y="18.124" font-family="'Helvetica'" font-size="18.1239">)=</tspan></text>
	
		<rect x="45.797" y="116.44" transform="matrix(0.9433 0.332 -0.332 0.9433 47.8645 -20.2855)" fill="none" width="75.015" height="27.018"/>
	<text transform="matrix(0.9433 0.332 -0.332 0.9433 60.4097 121.3828)"><tspan x="0" y="0" font-family="'Helvetica'" font-size="18.1239">h(</tspan><tspan x="16.116" y="0" fill="#2676BA" font-family="'Helvetica'" font-size="18.1239">B</tspan><tspan x="28.205" y="0" font-family="'Helvetica'" font-size="18.1239">,</tspan><tspan x="33.24" y="0.001" fill="#C95E33" font-family="'Helvetica'" font-size="18.1239">A</tspan><tspan x="45.329" y="0.001" font-family="'Helvetica'" font-size="18.1239">)=</tspan></text>
</g>
</svg>
