<?xml version="1.0" encoding="utf-8"?>
<!-- Generator: Adobe Illustrator 15.1.0, SVG Export Plug-In . SVG Version: 6.00 Build 0)  -->
<!DOCTYPE svg PUBLIC "-//W3C//DTD SVG 1.1//EN" "http://www.w3.org/Graphics/SVG/1.1/DTD/svg11.dtd">
<svg version="1.1"
	 id="svg2" inkscape:output_extension="org.inkscape.output.svg.inkscape" xmlns:sodipodi="http://sodipodi.sourceforge.net/DTD/sodipodi-0.dtd" inkscape:version="0.45.1" xmlns:dc="http://purl.org/dc/elements/1.1/" sodipodi:docbase="c:\temp" sodipodi:docname="Hausdorff_distance_sample.svg" xmlns:rdf="http://www.w3.org/1999/02/22-rdf-syntax-ns#" xmlns:cc="http://web.resource.org/cc/" xmlns:svg="http://www.w3.org/2000/svg" xmlns:inkscape="http://www.inkscape.org/namespaces/inkscape" sodipodi:version="0.32"
	 xmlns="http://www.w3.org/2000/svg" xmlns:xlink="http://www.w3.org/1999/xlink" x="0px" y="0px" width="400px" height="400px"
	 viewBox="0 0 400 400" enable-background="new 0 0 400 400" xml:space="preserve">
<sodipodi:namedview  inkscape:window-width="1082" height="400px" width="400px" inkscape:cx="174" inkscape:window-x="125" objecttolerance="10" borderopacity="1.0" id="base" gridtolerance="10000" inkscape:zoom="1.1329545" inkscape:window-height="968" inkscape:pageshadow="2" bordercolor="#666666" pagecolor="#ffffff" inkscape:pageopacity="0.0" inkscape:cy="151" inkscape:window-y="65" inkscape:document-units="px" guidetolerance="10" inkscape:current-layer="layer1">
	</sodipodi:namedview>
<g id="layer1" inkscape:label="Layer 1" inkscape:groupmode="layer">
	
		<path id="path3135" sodipodi:nodetypes="csssssssssssssssssssssssssc" fill="none" stroke="#0000C0" stroke-width="5.5813" stroke-linecap="round" stroke-linejoin="round" d="
		M353.654,200c1.062,10.312-3.623,20.859-7.23,30.109c-3.585,9.195-18.787,44.588-22.498,53.438
		c-3.781,9.014-12.765,14.292-18.256,22.123c-6.232,8.888-7.771,26.674-15.836,31.878c-13.262,8.561-22.098,0.699-31.674,0.163
		c-10.123-0.566-20.292,3.874-30.146,5.089c-11.851,1.461-20.009-2.229-30.109-0.148c-10.313,2.124-15.976,10.476-26.966,10.061
		c-11.843-0.448-17.129-11.732-29.098-15.001c-11.125-3.038-31.615-2.257-40.042,2.335c-10.607,5.779-51.21,32.974-65.355,18.382
		c-14.874-15.342,8.748-50.326,12.403-62.526c2.754-9.193,13.991-48.996,10.593-65.792c-1.969-9.73-7.838-20.858-8.9-30.109
		c-1.176-10.246,2.758-50.77,6.002-60.241c3.146-9.183,3.57-17.024,10.486-25.961c5.226-6.753,42.042-32.096,49.427-37.723
		c8.521-6.491,44.242-18.914,53.438-22.499c9.25-3.606,19.812-3.588,30.11-3.038c10.312,0.55,28.951,8.434,38.836,9.372
		c9.727,0.924,23.455-3.919,32.413,0.78c9.067,4.756,10.188,9.702,17.608,15.607c7.511,5.976,9.541,11.821,16.812,18.034
		c7.295,6.232,19.668,8.703,25.583,16.261c11.2,14.31,14.319,44.994,15.171,59.299C347.068,180.7,353.123,189.156,353.654,200z"/>
	
		<path id="path3140" sodipodi:nodetypes="cssssssssssssssssssssssssc" fill="none" stroke="#008000" stroke-width="4" stroke-linecap="round" stroke-linejoin="round" d="
		M324.553,200c4.248,9.125,3.508,16.924,2.183,25.092c-1.659,10.229-30.721,54.879-38.677,62.967
		c-7.438,7.561-30.398,22.868-39.592,26.7c-9.928,4.14-38.811,7.669-48.467,9.793c-8.394,1.847-17.342,0.666-25.615,0.612
		c-10.23-0.067-16.94-4.882-22.851-10.405c-5.481-5.121-12.131-10.251-18.537-15.155c-7.427-5.687-19.816-4.975-25.452-10.08
		c-5.908-5.351-3.683-10.619-10.816-19.9c-4.874-6.342-15.496-33.239-18.749-44.531c-2.291-7.951-5.994-14.373-5.463-25.092
		c0.425-8.583,7.466-14.861,9.126-25.091c1.325-8.167-0.086-15.394,3.597-23.375c3.39-7.345,21.065-33.956,26.701-39.592
		c5.636-5.636,10.792-8.455,17.912-12.098c8.751-4.478,34.695-24.355,42.959-23.959c9.699,0.464,18.536,2.893,26.139,6.899
		c8.063,4.249,12.362,4.187,14.455,12.191c2.795,10.688-7.542,41.871,8.681,50.352c15.363,8.033,38.286-24.951,44.879-29.479
		c6.627-4.551,13.176-4.844,21.092-3.906c7.229,0.856,13.843,9.4,17.868,16.311c4.478,7.689,6.147,15.65,8.833,23.281
		c2.621,7.45,0.355,15.18,1.497,23.375C317.386,183.014,321.365,191.406,324.553,200z"/>
	
		<path id="path3160" sodipodi:cx="285.45984" sodipodi:open="true" sodipodi:rx="61.871761" sodipodi:type="arc" sodipodi:start="3.3543482" sodipodi:ry="62.402851" sodipodi:end="6.8513377" sodipodi:cy="84.268135" fill="none" stroke="#000000" stroke-width="1.4365" stroke-linecap="round" stroke-linejoin="round" d="
		M137.418,126.63c10.088-46.7,56.125-76.379,102.824-66.291c46.701,10.088,76.381,56.125,66.292,102.825
		c-2.17,10.043-6.111,19.62-11.641,28.281"/>
	
		<path id="path3162" sodipodi:cx="220.93265" sodipodi:rx="3.7176166" sodipodi:type="arc" sodipodi:ry="3.7176166" sodipodi:cy="147.73315" d="
		M226.977,144.896c0.003,2.762-2.232,5.003-4.994,5.007c-2.762,0.004-5.003-2.232-5.006-4.993c0-0.004,0-0.009,0-0.014
		c-0.004-2.761,2.231-5.003,4.992-5.006c2.762-0.004,5.004,2.232,5.008,4.993C226.977,144.888,226.977,144.892,226.977,144.896z"/>
	
		<path id="path3164" sodipodi:cx="220.93265" sodipodi:rx="3.7176166" sodipodi:type="arc" sodipodi:ry="3.7176166" sodipodi:cy="147.73315" d="
		M40.674,358.031c0.003,2.762-2.232,5.003-4.994,5.007c-2.761,0.003-5.003-2.232-5.006-4.993c0-0.005,0-0.01,0-0.014
		c-0.004-2.762,2.231-5.003,4.993-5.007c2.761-0.004,5.003,2.231,5.007,4.993C40.674,358.022,40.674,358.026,40.674,358.031z"/>
	
		<path id="path3166" sodipodi:cx="220.93265" sodipodi:rx="3.7176166" sodipodi:type="arc" sodipodi:ry="3.7176166" sodipodi:cy="147.73315" d="
		M241.124,59.25c0.004,2.761-2.231,5.003-4.993,5.007c-2.762,0.003-5.003-2.232-5.007-4.993c0-0.004,0-0.009,0-0.014
		c-0.003-2.761,2.231-5.003,4.993-5.007c2.762-0.003,5.004,2.232,5.007,4.994C241.124,59.242,241.124,59.246,241.124,59.25z"/>
	<path id="path3168" fill="none" stroke="#000000" stroke-width="2" stroke-dasharray="2,4" d="M236.068,59.012l-13.863,86.184"/>
	
		<path id="path3170" sodipodi:cx="285.45984" sodipodi:open="true" sodipodi:rx="61.871761" sodipodi:type="arc" sodipodi:start="4.4419473" sodipodi:ry="62.402851" sodipodi:end="6.5900072" sodipodi:cy="84.268135" fill="none" stroke="#000000" stroke-width="1.2498" stroke-linecap="round" stroke-linejoin="round" d="
		M9.109,262.21c52.92-14.671,107.714,16.336,122.386,69.256c5.147,18.567,4.79,38.23-1.03,56.598"/>
	
		<path id="path3172" sodipodi:cx="220.93265" sodipodi:rx="3.7176166" sodipodi:type="arc" sodipodi:ry="3.7176166" sodipodi:cy="147.73315" d="
		M112.147,289.146c0.004,2.762-2.232,5.004-4.993,5.008s-5.003-2.232-5.007-4.994c0-0.004,0-0.009,0-0.014
		c-0.003-2.761,2.232-5.002,4.994-5.006c2.761-0.004,5.003,2.231,5.006,4.993C112.147,289.139,112.147,289.143,112.147,289.146z"/>
	<path id="path3174" fill="none" stroke="#000000" stroke-width="2" stroke-dasharray="2,4" d="M107.217,289.121l-71.41,69.375"/>
	<path id="path3314" fill="#008000" d="M100.322,190.972c-2.45,0-3.047,0.101-3.047,0.422c0,0.219,0.257,0.466,0.562,0.562
		c1.008,0.32,0.597,1.102-2.016,3.703l-2.578,2.578l-1.359-2.812c-1.295-2.701-1.342-2.87-0.844-3.234
		c0.286-0.209,0.755-0.375,1.031-0.375c0.276,0,0.516-0.188,0.516-0.422c0-0.363-0.528-0.394-3.656-0.328
		c-2.62,0.056-3.714,0.173-3.797,0.422c-0.07,0.211,0.169,0.326,0.562,0.328c1.605,0.009,1.766,0.23,3.656,4.266
		c1.013,2.162,1.832,4.064,1.828,4.219s-1.617,1.86-3.562,3.797c-3.474,3.457-5.157,4.625-6.656,4.641
		c-0.367,0.004-0.609,0.177-0.609,0.422c0,0.346,0.536,0.422,3.188,0.422c2.532,0,3.188-0.07,3.188-0.375
		c0-0.211-0.257-0.436-0.562-0.516c-1.042-0.273-0.493-1.17,2.531-4.359l3-3.188l1.547,3.188c0.847,1.754,1.545,3.363,1.547,3.609
		c0.001,0.262-0.382,0.557-0.891,0.703c-1.806,0.518-0.891,0.813,2.766,0.891c3.148,0.066,3.656-0.012,3.656-0.375
		c0-0.28-0.236-0.422-0.75-0.422c-0.429,0-1.014-0.138-1.266-0.328c-0.252-0.191-1.378-2.34-2.531-4.781l-2.109-4.454l3.422-3.375
		c2.845-2.808,3.614-3.439,4.641-3.703c1.837-0.471,1.969-0.539,1.781-0.844C103.41,191.093,102.061,190.972,100.322,190.972z"/>
	<path id="path3319" fill="#0000C0" d="M309.109,308.545c-0.523,0.05-0.656,0.193-0.656,0.375c0,0.28,0.235,0.422,0.75,0.422
		c0.429,0,0.976,0.138,1.219,0.328c0.242,0.191,1.342,2.485,2.438,5.109l2.016,4.781l-0.656,2.859
		c-0.711,3.182-1.149,3.844-2.578,3.844c-0.941,0-1.439,0.296-1.078,0.656c0.301,0.302,7.734,0.077,7.734-0.234
		c0-0.152-0.498-0.327-1.078-0.375c-0.581-0.048-1.096-0.269-1.172-0.469c-0.199-0.519,0.98-5.415,1.5-6.234
		c0.238-0.377,2.148-2.563,4.266-4.875c3.652-3.987,4.602-4.83,6.375-5.344c1.592-0.461,0.896-0.765-1.922-0.844
		c-2.309-0.063-2.859,0.009-2.859,0.328c0,0.217,0.257,0.437,0.562,0.516c0.305,0.08,0.562,0.368,0.562,0.609
		c0,0.4-6.867,8.203-7.219,8.203c-0.084,0-0.918-1.904-1.875-4.219c-1.855-4.485-1.867-4.632-0.234-4.641
		c0.504-0.002,0.73-0.152,0.656-0.375c-0.083-0.248-1.131-0.366-3.75-0.422C310.545,308.512,309.632,308.496,309.109,308.545z"/>
	<g id="g3328" transform="translate(156.15117,37.616504)">
		<path id="path3306" fill="#FFFFFF" d="M31.403,311.912c-5.831,3.066-7.634,10.927-7.469,16.656
			c-3.433-1.731,1.4-7.961,1.188-11.469c2.458-5.022-2.137-4.065-5.812-3.438c-2.46,0.384-2.565,3.94-0.438,4.719
			c-0.04,3.304-4.992,0.954-6.531,3.906c-4.729,3.49-5.216,14.183,2.156,14.312c1.981-0.668,3.247-1.007,5.219-0.094
			c2.514,0.727,4.34-2.558,4.75-3.875c1.189,4.09,3.429,10.131,8.375,10.438c3.538-3.285-2.767-6.273-2.688-10.125
			c-1.502-6.248-0.446-13.331,3.938-18.25C34.359,313.139,33.131,311.305,31.403,311.912z M74.871,312.224
			c-2.786,3.281,3.218,6.138,3.031,9.844c1.702,6.563,0.131,13.396-4.094,18.562c1.126,5.057,6.249,0.694,7.406-2.125
			c4.688-8.191,3.987-21.268-4.562-26.594C76.075,311.884,75.172,311.5,74.871,312.224z M-2.754,313.193
			c-4.105-0.022-5.61,4.688-5.844,7.438c-1.821,0.353-1.542,3.167-2.938,0.688c-2.653-2.248-5.933-0.128-8.719-1.156
			c-1.868-0.983-5.177,2.893-4.281-0.281c-1.998,0.542,1.729-3.052-0.594-4.312c-3.458-4.396-8.221,2.77-4.719,4.781
			c-2.968-0.245-3.266,4.656-0.375,4.938c0,3.048,0.76,6.003-1.875,7.75c-0.543,5.01,6.176,2.604,9.125,3.062
			c4.896,0.127,9.979-0.044,14.719,0c-3.047,0.451-2.057,4.362,0.375,4.594c3.457,3.827-2.752,7.311-5.812,7.938
			c-1.906-0.219-7.793-0.269-2.344-0.406c3.414,1.373,6.546-3.792,2.344-4.781c-1.129-0.185-7.23-0.054-3.375-0.375
			c2.841,0.965,7.537-1.635,4.406-4.531c-4.045-1.479-9.443,0.056-11.594,3.25c-2.046-2.597-5.227-0.604-7.812-1.406
			c-3.004,0.389-5.374,4.318-3.906,6.531c-2.954,3.511,2.077,6.813,5.219,5.25c2.685,1.36,5.522-1.14,6.5-2.906
			c2.312,4.768,9.279,5.158,13,2.938c2.77,0.624,6.896,0.09,6.281-3.406c1.236-1.555-1.156,3.891,2.25,3.344
			c2.595,0.914,8.815-0.027,5.938-3.75c-3.306-1.297-3.908-6.026-0.156-7.625c3.312,0.032,4.187-4.885,0.438-4.812
			c-1.931-0.979-5.353,1.315-5.75,0.219c3.168-0.004,2.878-4.798-0.156-4.75c0.284-2.674-1.33-6.368,2.125-6.656
			c2.665-2.092-0.771-4.35-2.25-4.656c0.72-0.335,4.044,0.289,4.469-2.094C2.882,315.102,0.084,312.652-2.754,313.193z
			 M-57.629,320.099c-1.597-0.508-5.168,1.545-5.031-0.188c-5.348,1.168-9.76-0.294-14.938,0.719
			c-3.574,1.031-3.551,5.372-2.812,7.938c-1.344,3.137-0.864,9.491,3.719,7.719c3.393,1.46,7.8-1.174,8.344-3.938
			c0.741,5.286,7.536,4.251,10.844,4.156c1.979-0.148,5.343-1.298,2.344,0.781c-1.729,1.261-0.224,3.894,0.938,4
			c-2.819-0.757-2.494,3.122-4.812,2.219c-3.338-0.371-7.238,0.398-9.062,3.5c-1.182-2.222-4.465-0.396-4.938,0.25
			c-3.33-4.89-10.575,2.901-5.938,5.719c0.812,2.558-2.753,5.271,0.312,7.438c4.43,3.177,9.746-2.335,9.781-6.719
			c1.567,4.931,9.163,7.005,12.812,3.656c0.018-2.182,2.097,1.434,3.812,0.281c2.928-0.061,6.573,0.449,5.406-3.531
			c-3.459-1.238,1.774-4.715,2.625-6.219c1.757-2.068,7.293-3.661,3.062-6.281c-2.829-1.004-6.914-0.352-6.531,3.219
			c-3.116,3.653,1.062-2.997-2.219-3.219c-2.014-0.537,5.225,0.573,3.906-2.688c0.602-1.734-3.832-2.657-0.625-2.375
			c8.353,0.21,10.494-12.829,2.969-15.75c-2.655-1.312-5.289,0.159-7.906-0.594c-2.613-0.062-4.057,1.633-4.87-0.213l-0.995,0.1
			L-57.629,320.099z M44.778,320.193c-2.649,1.696-5.708-1.399-8.438,1.031c-2.761,1.416-4.667,8.16,0.188,7.188
			c1.586-0.777,2.676-4.757,1.715-0.813c0.493,4.047-3.416,0.343-4.934,3.063c-3.135,3.854,3.165,7.95,6.312,5
			c4.217,3.479,11.813-3.472,7.812-7.281c-2.281-1.81-3.639,2.898-4.062,2.719c0.389-3.195,0.85-4.495,3.938-3.938
			C51.86,325.346,49.061,319.283,44.778,320.193z M64.121,320.193c-3.936,0.63-6.853,7.884-2.406,8.781
			c-0.969,2.502,1.282,5.131-1.406,6.656c-2.421,5.28,5.364,8.13,8.75,4.594c4.942-4.114,4.963-11.439,6.375-17.25
			c-0.434-3.886-6.155-2.491-5.906,1.062c-0.36,1.253-2.45,10.193-2.219,6.25C68.933,326.523,70.583,319.821,64.121,320.193z
			 M-24.222,324.443c2.689,0.899,1.308,5.192,1.094,7.062C-25.985,332.867-24.004,324.222-24.222,324.443z M-55.316,324.443
			c2.836,0.961,1.157,6.591,1.125,7.625C-56.84,331.331-54.865,326.127-55.316,324.443z M-9.597,324.881
			c2.915,0.216,1.177,5.009,1.062,6.625C-10.73,332.832-9.635,323.954-9.597,324.881z M-62.379,324.756
			c1.915,0.971,1.542,5.186,0.406,6.969c-1.743,0.72-0.006-4.598-0.688-5.406C-62.214,326.456-63.232,323.859-62.379,324.756z
			 M-74.722,324.693C-72.683,325.09-75.377,325.023-74.722,324.693z M-15.722,324.818c-0.258,1.759,1.473,7.281-1.156,6.656
			C-16.48,329.484-17.965,325.9-15.722,324.818z M-46.972,324.881c2.75,0.576,2.556,6.884-0.312,6.969
			c-1.168-1.311-1.806-5.785,0.125-6.938C-47.082,324.966-47.041,324.865-46.972,324.881z M17.09,324.912
			c-0.269,1.812-0.74,6.532-2.375,6.469C15.017,329.146,15.177,326.392,17.09,324.912z M-68.879,325.193
			c0.765,1.939,0.623,5.78-0.562,2.062C-68.966,326.689-69.031,325.709-68.879,325.193z M51.621,329.662
			c-3.549,0.771-2.436,5.358-0.625,6.625c-3.112,2.306,0.241,7.508,3.031,3.875C56.839,337.277,57.511,328.999,51.621,329.662z
			 M-74.691,331.037c2.827,0.559-1.186,1.776-1.219-0.281l0.974,0.226L-74.691,331.037z M-55.722,345.724
			c2.002,2.243,3.922,7.337-0.031,8.469c-0.017,2.438-2.136-1.472-3.969-0.344c-2.194,0.199-4.712-0.505-0.531-0.281
			c3.614,1.512,6.563-4.187,2.062-4.812c-1.041-0.051-6.911-0.027-3.094-0.312C-59.078,348.492-55.72,348.555-55.722,345.724z"/>
		<path id="path3324" d="M31.958,313.83c-0.405-0.156-2.089,1.503-3.25,3.281c-0.953,1.459-1.842,3.564-2.344,5.562
			c-0.239,0.948-0.309,2.073-0.312,4.75c-0.004,3.097,0.056,3.72,0.438,5.188c0.774,2.977,2.206,5.581,4.062,7.438
			c0.92,0.92,1.5,1.233,1.5,0.781c0-0.111-0.379-0.632-0.844-1.156c-1.098-1.241-2.554-4.261-3.031-6.25
			c-0.208-0.865-0.475-2.576-0.594-3.812c-0.524-5.456,0.875-11.064,3.531-14.25c0.526-0.632,0.938-1.238,0.938-1.344
			C32.051,313.916,32.015,313.851,31.958,313.83z M76.021,313.83c-0.07,0.02-0.125,0.078-0.125,0.188
			c0,0.105,0.441,0.712,0.969,1.344c0.525,0.631,1.319,1.896,1.75,2.812c3.125,6.653,2.231,16.812-1.875,21.5
			c-0.461,0.524-0.844,1.045-0.844,1.156c0,0.778,2.019-1.006,3.281-2.906c1.764-2.657,2.631-5.646,2.781-9.5
			c0.226-5.835-1.311-10.373-4.594-13.656C76.706,314.109,76.228,313.77,76.021,313.83z M-2.542,315.142
			c-1.29,0.093-2.349,0.719-3.094,1.844c-0.48,0.724-0.505,0.926-0.562,3.156l-0.062,2.375h-1.094c-0.972,0-1.094,0.046-1.094,0.375
			c0,0.328,0.107,0.375,1.094,0.375h1.125v4.625c0,2.843-0.07,4.78-0.188,5c-0.105,0.196-0.4,0.342-0.625,0.344
			c-0.776,0.005-1.219,0.239-1.219,0.594c0,0.327,0.168,0.344,3.125,0.344c2.982,0,3.156-0.006,3.156-0.344
			c0-0.293-0.189-0.399-1-0.5c-0.544-0.068-1.107-0.193-1.25-0.281c-0.212-0.131-0.25-1.042-0.25-4.938v-4.75l1.531-0.062
			c1.374-0.049,1.531-0.08,1.531-0.406c0-0.332-0.155-0.375-1.594-0.375h-1.562v-1.906c0-2.955,0.651-4.495,2.062-4.844
			c0.737-0.183,0.916,0.009,0.562,0.625c-0.249,0.433-0.24,0.611-0.062,1c0.473,1.039,2.062,0.705,2.062-0.438
			C0.051,315.674-0.865,315.02-2.542,315.142z M23.426,315.236l-1.75,0.156c-2.144,0.158-2.375,0.207-2.375,0.656
			c0,0.299,0.135,0.375,0.812,0.375c0.445,0,0.87,0.091,0.969,0.219c0.122,0.156-0.073,1.34-0.656,3.656l-0.875,3.438l-0.344-0.531
			c-1.32-2.012-4.747-1.045-6.75,1.906c-1.049,1.545-1.516,2.817-1.625,4.531c-0.147,2.315,0.398,3.662,1.875,4.562
			c1.18,0.719,2.973,0.335,4.344-0.938c0.697-0.647,0.75-0.695,0.75-0.312c0,0.15,0.245,0.555,0.531,0.875
			c0.422,0.472,0.693,0.581,1.469,0.656c0.896,0.086,1,0.062,1.594-0.531c0.431-0.432,0.766-1.049,1.031-1.906
			c0.459-1.487,0.496-1.938,0.125-1.938c-0.173,0-0.4,0.388-0.594,1.062c-0.601,2.088-1.28,2.977-2.094,2.719
			c-0.787-0.25-0.702-1.015,1.375-9.469c1.096-4.461,2.047-8.331,2.094-8.625L23.426,315.236z M-27.98,316.236
			c-0.268,0.044-0.554,0.192-0.781,0.406c-0.53,0.497-0.531,1.244-0.031,1.781c0.547,0.587,1.504,0.535,2-0.094
			c0.483-0.615,0.483-1.011,0-1.625C-27.096,316.319-27.533,316.162-27.98,316.236z M-64.699,322.08l-1.406,0.125
			c-0.779,0.065-1.648,0.125-1.938,0.125c-0.439,0-0.531,0.083-0.531,0.469c0,0.399,0.064,0.469,0.594,0.469
			c0.336,0,0.771,0.105,0.969,0.25c0.333,0.243,0.383,0.595,0.469,4.688c0.09,4.285,0.099,4.426,0.531,5.031
			c0.244,0.342,0.802,0.779,1.219,0.969c0.854,0.388,2.734,0.471,3.562,0.156c0.286-0.109,0.848-0.598,1.281-1.062l0.812-0.844
			v1.062v1.094l1.406-0.125c0.778-0.066,1.604-0.125,1.844-0.125c0.34,0,0.438-0.107,0.438-0.469c0-0.405-0.089-0.469-0.656-0.469
			c-0.401,0-0.771-0.146-1-0.375c-0.353-0.354-0.375-0.604-0.375-5.656v-5.312l-1.25,0.125c-0.687,0.064-1.556,0.124-1.938,0.125
			c-0.606,0.001-0.688,0.054-0.688,0.438s0.094,0.446,0.844,0.531c0.47,0.053,0.912,0.205,1,0.344
			c0.087,0.138,0.186,1.798,0.188,3.688c0.003,4.007-0.186,4.794-1.312,5.812c-0.839,0.758-1.767,0.991-2.781,0.688
			c-1.239-0.372-1.281-0.593-1.281-6.531V322.08z M-26.574,322.08l-1.25,0.125c-0.687,0.064-1.544,0.124-1.875,0.125
			c-0.518,0.001-0.594,0.07-0.594,0.469c0,0.405,0.089,0.469,0.656,0.469c0.401,0,0.802,0.146,1.031,0.375
			c0.349,0.349,0.344,0.604,0.344,4.625c0,2.587-0.071,4.407-0.188,4.625c-0.105,0.196-0.369,0.342-0.594,0.344
			c-0.776,0.005-1.25,0.239-1.25,0.594c0,0.326,0.19,0.344,2.875,0.344s2.875-0.018,2.875-0.344c0-0.356-0.463-0.59-1.25-0.594
			c-0.28-0.002-0.505-0.153-0.625-0.469c-0.102-0.267-0.156-2.695-0.156-5.562V322.08z M-74.73,322.142
			c-2.724,0.002-4.219,1.188-4.219,3.312c0,1.458,1.132,2.76,2.75,3.156c0.366,0.089,1.26,0.303,1.969,0.469
			c2.052,0.48,2.991,1.669,2.5,3.156c-0.276,0.837-1.098,1.498-2.031,1.656c-2.086,0.353-3.544-0.677-4.25-3
			c-0.252-0.832-0.495-1.344-0.656-1.344c-0.21,0-0.281,0.479-0.281,2.5c0,2.044,0.064,2.5,0.281,2.5c0.146,0,0.44-0.26,0.656-0.562
			l0.375-0.531l0.781,0.5c0.691,0.457,0.905,0.5,2.438,0.5c1.542,0,1.758-0.062,2.469-0.531c1.873-1.24,2.229-3.723,0.75-5.406
			c-0.763-0.869-1.212-1.064-3.5-1.625c-1.6-0.393-2.017-0.567-2.438-1.031c-0.912-1.008-0.635-2.227,0.656-2.812
			c2.065-0.938,4.373-0.029,4.688,1.844c0.186,1.104,0.252,1.312,0.531,1.312c0.214,0,0.281-0.389,0.281-2.031
			c0-2.165-0.152-2.421-0.844-1.656c-0.326,0.359-0.326,0.359-1.031,0C-73.339,322.27-73.938,322.141-74.73,322.142z
			 M-50.761,322.142c-0.331-0.016-0.877,0.048-1.781,0.125c-1.303,0.109-1.438,0.152-1.438,0.531c0,0.343,0.13,0.412,0.781,0.5
			c0.431,0.058,0.9,0.258,1.031,0.438c0.305,0.416,0.333,13.779,0.031,14.344c-0.105,0.196-0.369,0.342-0.594,0.344
			c-0.776,0.004-1.25,0.239-1.25,0.594c0,0.326,0.193,0.344,2.969,0.344c2.797,0,2.969-0.039,2.969-0.375
			c0-0.287-0.188-0.376-0.969-0.5l-0.969-0.156l-0.062-2.656l-0.062-2.656l0.656,0.562c0.874,0.767,1.772,1.017,3.156,0.906
			c2.027-0.163,3.739-1.396,4.75-3.438c0.356-0.721,0.436-1.134,0.438-2.688c0.002-1.612-0.078-2.006-0.5-2.906
			c-1.574-3.355-5.71-4.401-8.156-2.062l-0.5,0.5v-0.875C-50.261,322.396-50.21,322.168-50.761,322.142z M-20.074,322.142
			c-0.33,0.016-0.789,0.072-1.406,0.125c-1.303,0.109-1.406,0.152-1.406,0.531c0,0.343,0.13,0.412,0.781,0.5
			c0.431,0.058,0.9,0.258,1.031,0.438c0.301,0.411,0.327,8.603,0.031,9.156c-0.105,0.196-0.369,0.342-0.594,0.344
			c-0.776,0.005-1.25,0.239-1.25,0.594c0,0.326,0.193,0.344,2.969,0.344c2.797,0,2.938-0.008,2.938-0.344
			c0-0.287-0.188-0.407-0.969-0.531l-0.969-0.156l-0.031-3.5c-0.06-4.163,0.076-4.829,1.312-5.969
			c1.387-1.278,3.002-1.238,3.688,0.125c0.287,0.571,0.323,1.161,0.281,5l-0.062,4.344l-0.969,0.156
			c-0.782,0.124-0.969,0.244-0.969,0.531c0,0.336,0.171,0.344,2.969,0.344c2.813,0,2.938-0.031,2.938-0.375
			c0-0.275-0.16-0.385-0.688-0.469c-1.31-0.21-1.242,0.062-1.344-4.844c-0.086-4.13-0.115-4.496-0.469-4.969
			c-0.74-0.99-1.292-1.279-2.719-1.344c-1.641-0.075-2.684,0.387-3.594,1.594l-0.625,0.812v-1.219
			C-19.199,322.313-19.084,322.094-20.074,322.142z M45.083,322.142c-0.918,0.09-1.812,0.569-2.25,1.312
			c-0.176,0.298-0.352,0.531-0.406,0.531c-0.055-0.001-0.234-0.229-0.406-0.531c-1.043-1.834-4.083-1.686-5.469,0.281
			c-0.595,0.844-1.156,2.074-1.156,2.5c0,0.725,0.568,0.303,0.938-0.688c0.45-1.21,1.571-2.391,2.562-2.688
			c0.678-0.203,0.831-0.178,1.281,0.156c0.941,0.698,0.912,1.265-0.125,5.406c-1.002,4.003-1.421,4.954-2.438,5.375
			c-0.317,0.131-0.827,0.167-1.219,0.094l-0.656-0.125l0.469-0.438c0.513-0.477,0.635-1.334,0.25-1.719c-0.63-0.63-2,0.143-2,1.125
			c0,0.715,0.297,1.2,0.906,1.531c1.251,0.679,3.013,0.177,3.844-1.062c0.192-0.288,0.387-0.501,0.438-0.5
			c0.051,0,0.234,0.229,0.406,0.531c1.005,1.766,3.868,1.68,5.313-0.156c1.12-1.425,1.674-3.073,1-2.938
			c-0.166,0.032-0.432,0.478-0.625,1c-0.629,1.685-2.34,3.012-3.532,2.75c-0.613-0.135-1.094-0.889-1.094-1.719
			c0-0.897,1.663-7.266,2.094-8.031c0.552-0.982,1.45-1.5,2.282-1.344c0.747,0.14,0.738,0.167,0.25,0.656
			c-0.457,0.456-0.492,1.554-0.062,1.719c1.795,0.688,2.721-1.86,1-2.75C46.198,322.176,45.633,322.088,45.083,322.142z
			 M64.583,322.142c-0.695,0-0.854,0.106-1.625,0.906c-1.179,1.222-2.141,3.65-1.375,3.5c0.182-0.036,0.484-0.493,0.719-1.156
			c0.48-1.365,1.695-2.749,2.344-2.656c0.268,0.038,0.484,0.253,0.594,0.562c0.139,0.399-0.013,1.038-0.812,3.406
			c-0.859,2.538-0.99,3.123-1,4.406c-0.01,1.165,0.083,1.606,0.375,2.094c0.793,1.327,2.936,1.751,4.469,0.875
			c0.432-0.248,0.781-0.361,0.781-0.281c0,0.079-0.146,0.611-0.344,1.188c-0.746,2.165-2.322,3.893-3.75,4.125
			c-0.776,0.125-1.901-0.308-2.188-0.844c-0.184-0.343-0.155-0.406,0.25-0.406c0.503,0,1.219-0.743,1.219-1.281
			c0-0.472-0.496-0.938-1.031-0.938c-0.748,0-1.375,0.784-1.375,1.719c0,0.909,0.35,1.505,1.188,2.031
			c0.458,0.287,0.829,0.33,1.781,0.281c1.477-0.077,2.67-0.627,3.875-1.812c1.473-1.451,1.846-2.48,3.438-8.906
			c1.23-4.969,1.428-5.874,1.219-6.125c-0.357-0.43-1.059-0.394-1.375,0.094c-0.149,0.229-0.797,2.433-1.406,4.875l-1.094,4.438
			l-0.844,0.781c-1.486,1.353-2.9,1.238-3.406-0.25c-0.344-1.009-0.078-2.764,0.875-5.562c0.409-1.204,0.75-2.498,0.75-2.875
			C66.833,322.893,66.06,322.142,64.583,322.142z M17.176,322.705c0.974,0,1.938,1.202,1.938,2.406c0,0.492-0.499,2.684-1.312,5.781
			c-0.234,0.89-1.494,2.305-2.469,2.75c-1.891,0.863-2.82-0.175-2.625-2.906c0.107-1.5,0.797-4.245,1.344-5.312
			C14.793,323.973,16.251,322.705,17.176,322.705z M-47.042,322.861c0.949-0.048,1.889,0.324,2.562,1.125
			c1.301,1.546,1.736,4.895,0.906,7.031c-0.445,1.145-1.481,2.343-2.375,2.719c-1.167,0.489-2.369,0.156-3.406-0.969l-0.719-0.812
			v-3.531c0-3.521-0.001-3.572,0.469-4.188C-48.943,323.368-47.992,322.908-47.042,322.861z M52.146,331.58
			c-0.307,0.032-0.556,0.172-0.719,0.406c-0.41,0.585-0.371,1.379,0.094,1.844c0.318,0.319,0.539,0.357,1.219,0.281l0.812-0.094
			l-0.125,0.969c-0.154,1.166-0.669,2.391-1.406,3.312c-0.307,0.382-0.5,0.773-0.438,0.875c0.062,0.101,0.193,0.188,0.281,0.188
			c0.283,0,1.167-1.182,1.656-2.219c0.406-0.864,0.468-1.278,0.469-2.719c0-1.436-0.078-1.777-0.406-2.219
			C53.249,331.755,52.654,331.525,52.146,331.58z M1.895,337.861c-1.634,0-2.031,0.067-2.031,0.281c0,0.146,0.171,0.31,0.375,0.375
			c0.672,0.213,0.397,0.734-1.344,2.469l-1.719,1.719l-0.906-1.875c-0.864-1.801-0.895-1.914-0.562-2.156
			c0.191-0.14,0.503-0.25,0.688-0.25s0.344-0.126,0.344-0.281c0-0.242-0.353-0.264-2.438-0.219
			c-1.747,0.036-2.476,0.115-2.531,0.281c-0.047,0.14,0.113,0.217,0.375,0.219c1.07,0.006,1.177,0.153,2.438,2.844
			c0.675,1.44,1.221,2.709,1.219,2.812c-0.002,0.103-1.078,1.239-2.375,2.531c-2.316,2.305-3.438,3.084-4.438,3.094
			c-0.245,0.002-0.406,0.117-0.406,0.281c0,0.23,0.357,0.281,2.125,0.281c1.688,0,2.125-0.047,2.125-0.25
			c0-0.142-0.172-0.291-0.375-0.344c-0.695-0.182-0.329-0.779,1.688-2.906l2-2.125l1.031,2.125c0.565,1.169,1.03,2.242,1.031,2.406
			c0.001,0.174-0.255,0.371-0.594,0.469c-1.204,0.345-0.594,0.542,1.844,0.594c2.099,0.044,2.438-0.008,2.438-0.25
			c0-0.188-0.157-0.281-0.5-0.281c-0.286,0-0.676-0.092-0.844-0.219c-0.168-0.128-0.918-1.56-1.688-3.188l-1.406-2.969l2.281-2.25
			c1.897-1.872,2.409-2.294,3.094-2.469c1.225-0.314,1.313-0.36,1.188-0.562C3.954,337.941,3.054,337.861,1.895,337.861z
			 M-16.105,340.08c-2.729,0-3.853,0.325-5.188,1.5c-3.255,2.865-2.113,8.027,2.094,9.531c0.409,0.146,1.587,0.245,3.031,0.25
			c2.002,0.007,2.373-0.031,2.469-0.281c0.192-0.501-0.319-0.618-2.625-0.625c-1.827-0.006-2.347-0.065-3.031-0.375
			c-1.412-0.639-2.529-1.937-2.875-3.375l-0.094-0.5h4.25c3.739,0,4.275-0.053,4.375-0.312c0.062-0.163,0.017-0.348-0.125-0.438
			c-0.142-0.091-2.111-0.187-4.375-0.188c-2.264-0.002-4.125-0.047-4.125-0.094c0-0.513,0.889-2.186,1.438-2.719
			c1.195-1.163,2.022-1.43,4.562-1.438c2.306-0.008,2.817-0.125,2.625-0.625C-13.795,340.142-14.156,340.08-16.105,340.08z
			 M-27.417,342.299c-0.448,0.035-0.903,0.233-1.312,0.594c-0.6,0.526-0.688,0.561-0.844,0.281c-0.47-0.84-2.033-1.106-3.125-0.531
			c-0.644,0.339-1.844,1.89-1.844,2.375c0,0.427,0.57,0.285,0.75-0.188c0.31-0.815,1.295-1.749,1.969-1.875
			c0.743-0.14,1.344,0.262,1.344,0.906c0,0.812-1.089,4.812-1.438,5.281c-0.415,0.557-1.134,0.863-1.594,0.688
			c-0.289-0.111-0.278-0.128,0-0.406c0.443-0.443,0.287-1.268-0.25-1.344c-1.064-0.151-1.542,1.304-0.656,2
			c0.824,0.647,2.479,0.368,3-0.5c0.185-0.309,0.221-0.309,0.406,0c0.482,0.803,2.111,1.136,3.094,0.625
			c1.129-0.588,2.4-2.719,1.625-2.719c-0.144,0-0.437,0.39-0.656,0.844c-0.701,1.447-2.289,2.036-2.906,1.094
			c-0.293-0.448-0.264-0.595,0.312-3c0.68-2.838,1.139-3.562,2.219-3.562c0.625,0,0.723,0.195,0.281,0.562
			c-0.16,0.132-0.281,0.452-0.25,0.719c0.042,0.36,0.165,0.488,0.531,0.531c1.071,0.124,1.521-1.265,0.625-1.969
			C-26.513,342.408-26.97,342.262-27.417,342.299z M-53.011,343.267c-2.085-0.045-2.438,0.008-2.438,0.25
			c0,0.187,0.188,0.281,0.531,0.281c0.286,0,0.65,0.091,0.812,0.219c0.162,0.127,0.895,1.656,1.625,3.406l1.312,3.188l-0.406,1.906
			c-0.474,2.12-0.766,2.562-1.719,2.562c-0.628,0-0.959,0.196-0.719,0.438c0.201,0.201,5.125,0.051,5.125-0.156
			c0-0.103-0.3-0.219-0.688-0.25c-0.387-0.032-0.761-0.18-0.812-0.312c-0.133-0.347,0.654-3.61,1-4.156
			c0.159-0.252,1.433-1.71,2.844-3.25c2.435-2.658,3.099-3.189,4.281-3.531c1.061-0.308,0.566-0.542-1.312-0.594
			c-1.539-0.043-1.875,0.006-1.875,0.219c0,0.144,0.171,0.321,0.375,0.375c0.203,0.053,0.344,0.214,0.344,0.375
			c0,0.267-4.578,5.469-4.812,5.469c-0.056,0-0.612-1.239-1.25-2.781c-1.237-2.991-1.245-3.119-0.156-3.125
			c0.336-0.002,0.487-0.103,0.438-0.25C-50.566,343.383-51.264,343.303-53.011,343.267z M-60.324,345.455
			c-2.729,0-3.853,0.325-5.188,1.5c-3.255,2.865-2.113,8.027,2.094,9.531c0.409,0.146,1.587,0.245,3.031,0.25
			c2.002,0.007,2.373-0.031,2.469-0.281c0.192-0.501-0.319-0.618-2.625-0.625c-1.827-0.006-2.347-0.097-3.031-0.406
			c-1.412-0.639-2.498-1.905-2.844-3.344l-0.125-0.531h4.25c3.739,0,4.275-0.021,4.375-0.281c0.062-0.163,0.017-0.379-0.125-0.469
			s-2.111-0.155-4.375-0.156c-2.264-0.002-4.125-0.047-4.125-0.094c0-0.513,0.889-2.186,1.438-2.719
			c1.195-1.163,2.022-1.43,4.562-1.438c2.306-0.008,2.817-0.125,2.625-0.625C-58.013,345.517-58.375,345.455-60.324,345.455z
			 M-76.167,347.674c-0.741,0.077-1.522,0.689-2.031,1.688c-0.42,0.822-0.467,1.281-0.125,1.281c0.132,0,0.415-0.409,0.625-0.906
			c0.401-0.949,1.152-1.619,1.625-1.438c0.397,0.152,0.334,0.584-0.281,2.406c-0.299,0.885-0.591,1.967-0.656,2.406
			c-0.157,1.043,0.254,2.021,1,2.406c0.706,0.364,2.06,0.388,2.531,0.031c0.6-0.454,0.664-0.321,0.281,0.688
			c-0.708,1.864-2.281,2.863-3.625,2.344l-0.531-0.188l0.5-0.281c0.429-0.227,0.516-0.389,0.469-0.875
			c-0.044-0.456-0.167-0.609-0.5-0.656c-0.612-0.087-1.125,0.466-1.125,1.188c0,0.45,0.15,0.721,0.594,1.094
			c0.525,0.441,0.717,0.505,1.656,0.438c1.28-0.093,2.562-0.83,3.406-1.938c0.466-0.612,0.763-1.479,1.625-4.812
			c0.581-2.246,1-4.212,0.938-4.375c-0.137-0.355-0.88-0.396-1.156-0.062c-0.108,0.13-0.502,1.477-0.875,3
			c-0.635,2.591-0.739,2.819-1.406,3.469c-1.476,1.436-2.855,0.529-2.406-1.562c0.103-0.479,0.398-1.408,0.656-2.094
			c0.593-1.577,0.613-2.2,0.031-2.781C-75.3,347.791-75.723,347.627-76.167,347.674z"/>
	</g>
	<g id="g3336" transform="translate(433.59041,-165.2882)">
		<path id="rect3308" fill="#FFFFFF" d="M-45.782,172.563c-2.012,3.471,3.387,5.916,3.25,9.625
			c1.631,6.351,0.223,13.131-3.75,18.125c-0.594,4.572,5.297,2.429,6.188-0.375c5.754-8.18,5.268-22.274-3.688-27.906
			C-44.514,171.745-45.118,172.363-45.782,172.563z M-89.001,172.063c-5.79,3.132-7.791,10.588-7.312,16.812
			c-3.676-1.861,1.338-8.481,1.188-12.5c0.957-5.673-11.926-2.607-6.719,1.906c1.228,3.5-4.154,1.151-5.688,3.656
			c-5.234,3.289-6.067,14.68,1.688,14.75c2.622-1.98,5.195,1.356,7.812-0.781c1.631-0.8,2.022-5.2,2.562-1.406
			c1.291,3.363,4.3,10.227,8.594,7.969c1.637-3.618-3.744-6.15-3.531-10.062c-1.415-6.141-0.025-12.769,3.938-17.562
			C-85.813,173.279-87.481,171.718-89.001,172.063z M-121.876,173.344c-4.154-0.105-5.525,4.741-5.844,7.406
			c-2.223,1.1-1.403,3.4-3.406,0.469c-2.945-1.799-6.012,0.042-8.969-0.875c-2.523-0.45-4.591,2.697-5-0.062
			c4.371-3.099-2.59-8.852-5-4.094c-2.051,2.255,3.209,4.665-0.5,4.719c-2.515,1.916,0.365,3.926,1.062,5.219
			c0.08,2.852,0.64,5.622-1.938,7.219c0.131,5.124,6.832,2.108,10,2.938c3.596,0.067,7.545-0.184,10.719,0.094
			c-1.101,2.175-1.628,2.212-4.156,1.875c-2.971-0.267-5.977,0.949-7.719,3.406c-2.369-3.135-4.52,2.21-6.188-0.844
			c-3.996-1.989-8.297,4.671-4.5,6.938c0.672,2.682-2.955,5.944,0.875,7.875c4.555,2.185,8.899-3.032,9.156-6.844
			c1.699,4.827,9.6,6.737,12.812,3c0.221-0.608,4.395,1.79,6.469,0.5c2.443,0.254,3.443-2.956,1.375-4.156
			c0.987-4.489,6.175-6.45,8.406-9.812c-0.629-3.409-8.459-3.375-7.594,0.75c-2.898,3.871-0.604-0.33-1.844-2.188
			c-2.444-1.493,5.6,0.781,4.594-3c-2.166-2.501-3.297-4.442-2.5-8.438c4.532,0.23,2.83-5.318-0.094-5.219
			c2.965,1.279,6.958-3.985,2.906-6.312C-119.688,173.373-120.809,173.221-121.876,173.344z M-184.626,180.375
			c-4.152,1.126-8.176-1.247-12.406,0.938c-2.469,1.413-2.71,4.917-1.531,7.062c-1.65,2.759-1.344,9.836,3.25,7.938
			c3.387,1.493,7.898-0.739,8.562-3.75c1.262,5.908,8.965,3.787,13.031,3.812c3.117-1.764,0.354,1.188-0.531,2.281
			c-0.289,3.424,4.449,1.91,0.906,4.938c0.741,2.264,5.631,4.232,2.432,6.751c-2.727,3.523-6.926,4.167-10.869,3.187
			c2.781,0.534,9.108-0.067,6.219-4.156c-1.139-1.417-6.416-0.309-5.688-0.938c2.492,0.225,7.959-0.057,6.031-3.938
			c-3.693-2.494-9.988-1.039-12.188,2.906c-2.014-2.926-5.646-1.031-8.5-1.594c-2.402,0.728-5.188,4.055-3.156,6.25
			c-3.344,2.946,1.443,7.32,4.688,5.281c2.66,1.447,5.827-0.66,6.812-3.062c2.125,5.172,9.428,5.299,13.219,3.25
			c2.688,0.544,6.688,0.073,6.125-3.406c1.442-1.846-0.799,4.399,2.969,3.375c2.973,1.59,8.851-1.855,4.344-4.344
			c-2.828-2.214-2.105-5.914,1.312-7.312c4.404-0.434,1.923-5.956-1.625-4.625c-1.443-0.176-6.326,1.705-3.781-0.531
			c2.815-2.321-3.883-4.756,0.5-4.031c8.754-0.366,9.615-14.617,1.062-16.219c-3.332,0.254-6.357-0.503-9.688,0.406
			c-1.34,1.131-5.23-1.986-7.875,0.312C-181.28,182.052-183.11,179.186-184.626,180.375z M-75.719,180.313
			c-2.93,1.563-6.869-1.602-9.406,1.969c-2.205,1.772-2.894,7.482,1.375,6.188c1.674-1.411,2.506-4.35,1.469-0.375
			c0.308,3.588-4.086-0.126-5.219,3.219c-2.104,3.979,3.723,7.115,6.688,4.469c4.129,3.525,11.861-3.394,7.844-7.281
			c-2.516-2.39-4.521,5.399-3.812,1.531c-0.089-3.675,1.527-2.43,3.906-2.812C-68.646,185.157-71.587,179.404-75.719,180.313z
			 M-56.376,180.344c-4.248,0.694-6.275,7.958-2.375,8.812c-0.871,2.583,1.244,5.009-1.375,6.594
			c-2.44,5.725,6.105,8.159,9.344,4.156c4.308-4.351,4.492-11.154,5.781-16.812c-1.201-4.89-6.919-1.12-6.312,2.594
			c-0.143,2.705-3.02,9.162-1.375,3.25C-50.757,185.38-51.039,179.725-56.376,180.344z M-143.501,184.625
			c2.492,0.929,1.443,5.389,0.938,7.094C-145.16,192.952-143.569,183.419-143.501,184.625z M-128.907,184.625
			c2.83,0.649,1.648,5.386,1.125,7.094c-2.719,0.188-0.537-5.32-1.438-7.219l-0.062-0.375L-128.907,184.625z M-173.657,184.625
			c2.852,1.253,0.7,5.443,1.375,7.969C-175.333,191.55-173.325,186.209-173.657,184.625z M-180.782,184.906
			c1.734,0.584,1.912,7.04-0.188,7C-181.022,189.802-181.325,185.538-180.782,184.906z M-193.251,184.844
			C-191.71,185.031-192.463,185.259-193.251,184.844z M-135.032,184.938c-0.285,1.896,1.237,6.888-1.156,6.688
			C-135.733,189.592-137.342,186.158-135.032,184.938z M-165.376,185.031c2.793,0.368,2.518,6.915-0.312,6.969
			C-166.773,191.419-167.467,185.267-165.376,185.031z M-103.313,185.156c-0.352,1.718-0.797,6.631-2.406,6.25
			C-105.389,189.343-105.18,186.104-103.313,185.156z M-187.001,185.25c1.174,4.238-1.094,4.721-0.406,1.062
			C-187.196,186.043-187.658,184.746-187.001,185.25z M-68.501,189.781c-3.459,0.289-3.377,5.279-0.844,6.438
			c-2.568,1.837-1.024,6.877,2.25,4.75C-63.817,198.395-62.472,189.515-68.501,189.781z M-193.094,191.156
			c2.829,0.597-1.208,1.787-1.188-0.312l0.968,0.254L-193.094,191.156z M-128.063,196C-127.722,196.266-128.828,195.87-128.063,196z
			 M-130.219,200.5c1.598,2.062,4.128,7.141,0.25,8.156c-0.473,2.832-2.826-1.338-5.062-0.062c-2.352,0.113-3.198-0.536,0.25-0.25
			c3.682,1.454,6.477-4.082,1.969-4.812c-1.864-0.092-7.131-0.098-2.219-0.344C-132.954,203.479-130.162,202.624-130.219,200.5z"/>
		<path id="path3332" d="M-44.332,174.005c-0.069,0.02-0.094,0.079-0.094,0.188c0,0.106,0.411,0.712,0.938,1.344
			c0.526,0.632,1.319,1.897,1.75,2.812c3.126,6.653,2.232,16.813-1.875,21.5c-0.46,0.525-0.812,1.046-0.812,1.156
			c0,0.779,1.988-1.005,3.25-2.906c1.764-2.657,2.632-5.646,2.781-9.5c0.226-5.834-1.278-10.373-4.562-13.656
			C-43.614,174.286-44.124,173.946-44.332,174.005z M-88.363,174.037c-0.405-0.156-2.12,1.472-3.281,3.25
			c-0.952,1.459-1.811,3.565-2.312,5.562c-0.238,0.949-0.31,2.074-0.312,4.75c-0.003,3.097,0.024,3.721,0.406,5.188
			c0.774,2.978,2.206,5.581,4.062,7.438c0.921,0.921,1.531,1.234,1.531,0.781c0-0.11-0.379-0.631-0.844-1.156
			c-1.098-1.24-2.585-4.229-3.062-6.219c-0.207-0.865-0.475-2.607-0.594-3.844c-0.524-5.455,0.875-11.063,3.531-14.25
			c0.526-0.631,0.969-1.237,0.969-1.344C-88.269,174.092-88.305,174.059-88.363,174.037z M-121.582,175.349
			c-1.289,0.093-2.349,0.719-3.094,1.844c-0.479,0.724-0.505,0.926-0.562,3.156l-0.062,2.344h-1.094
			c-0.972,0-1.094,0.047-1.094,0.375c0,0.329,0.107,0.375,1.094,0.375h1.125v4.656c0,2.843-0.101,4.75-0.219,4.969
			c-0.104,0.197-0.368,0.374-0.594,0.375c-0.776,0.005-1.25,0.209-1.25,0.562c0,0.328,0.2,0.344,3.156,0.344
			c2.983,0,3.156-0.005,3.156-0.344c0-0.292-0.188-0.367-1-0.469c-0.544-0.068-1.106-0.193-1.25-0.281
			c-0.212-0.131-0.25-1.042-0.25-4.938v-4.781l1.531-0.062c1.374-0.048,1.5-0.08,1.5-0.406c0-0.332-0.124-0.375-1.562-0.375h-1.562
			v-1.906c0-2.954,0.651-4.495,2.062-4.844c0.737-0.182,0.916,0.041,0.562,0.656c-0.249,0.434-0.271,0.612-0.094,1
			c0.474,1.04,2.094,0.674,2.094-0.469C-118.988,175.851-119.904,175.228-121.582,175.349z M-96.925,175.443l-1.75,0.125
			c-2.144,0.159-2.375,0.239-2.375,0.688c0,0.299,0.136,0.344,0.812,0.344c0.446,0,0.901,0.092,1,0.219
			c0.122,0.157-0.104,1.34-0.688,3.656l-0.875,3.438l-0.344-0.531c-1.319-2.011-4.746-1.013-6.75,1.938
			c-1.049,1.545-1.516,2.787-1.625,4.5c-0.147,2.316,0.43,3.662,1.906,4.562c1.18,0.72,2.942,0.335,4.312-0.938
			c0.696-0.646,0.781-0.663,0.781-0.281c0,0.151,0.214,0.524,0.5,0.844c0.423,0.473,0.725,0.613,1.5,0.688
			c0.896,0.086,0.97,0.031,1.562-0.562c0.431-0.431,0.767-1.017,1.031-1.875c0.46-1.486,0.496-1.969,0.125-1.969
			c-0.173,0-0.399,0.388-0.594,1.062c-0.601,2.089-1.279,3.009-2.094,2.75c-0.786-0.25-0.671-1.015,1.406-9.469
			c1.097-4.46,2.017-8.362,2.062-8.656L-96.925,175.443z M-146.957,176.412c-0.354-0.015-0.728,0.122-1.031,0.406
			c-0.529,0.498-0.53,1.245-0.031,1.781c0.547,0.587,1.505,0.536,2-0.094c0.483-0.615,0.483-0.979,0-1.594
			C-146.261,176.604-146.602,176.427-146.957,176.412z M-183.019,182.287l-1.406,0.125c-0.778,0.066-1.647,0.125-1.938,0.125
			c-0.438,0-0.531,0.053-0.531,0.438c0,0.4,0.096,0.469,0.625,0.469c0.337,0,0.771,0.137,0.969,0.281
			c0.333,0.244,0.353,0.564,0.438,4.656c0.091,4.286,0.1,4.426,0.531,5.031c0.245,0.343,0.802,0.78,1.219,0.969
			c0.854,0.388,2.734,0.471,3.562,0.156c0.286-0.108,0.88-0.566,1.312-1.031l0.781-0.875v1.094v1.062l1.406-0.125
			c0.778-0.065,1.636-0.125,1.875-0.125c0.341,0,0.406-0.075,0.406-0.438c0-0.405-0.058-0.469-0.625-0.469
			c-0.4,0-0.802-0.146-1.031-0.375c-0.353-0.353-0.375-0.635-0.375-5.688v-5.281l-1.25,0.125c-0.687,0.065-1.556,0.093-1.938,0.094
			c-0.606,0.001-0.688,0.086-0.688,0.469c0,0.384,0.095,0.447,0.844,0.531c0.471,0.053,0.944,0.206,1.031,0.344
			c0.088,0.139,0.155,1.798,0.156,3.688c0.003,4.008-0.154,4.763-1.281,5.781c-0.839,0.758-1.798,0.992-2.812,0.688
			c-1.239-0.371-1.281-0.561-1.281-6.5V182.287z M-145.832,182.287l-1.25,0.125c-0.687,0.065-1.513,0.093-1.844,0.094
			c-0.518,0.001-0.594,0.071-0.594,0.469c0,0.405,0.089,0.469,0.656,0.469c0.401,0,0.771,0.146,1,0.375
			c0.349,0.349,0.375,0.604,0.375,4.625c0,2.588-0.071,4.408-0.188,4.625c-0.104,0.197-0.368,0.374-0.594,0.375
			c-0.776,0.005-1.25,0.209-1.25,0.562c0,0.327,0.19,0.344,2.875,0.344s2.875-0.017,2.875-0.344c0-0.355-0.494-0.558-1.281-0.562
			c-0.28-0.001-0.474-0.152-0.594-0.469c-0.101-0.267-0.188-2.726-0.188-5.594V182.287z M-189.55,182.318
			c-0.124-0.05-0.303,0.088-0.562,0.375c-0.325,0.36-0.325,0.36-1.031,0c-0.483-0.247-1.083-0.344-1.875-0.344
			c-2.724,0.002-4.219,1.157-4.219,3.281c0,1.459,1.132,2.761,2.75,3.156c0.366,0.09,1.229,0.303,1.938,0.469
			c2.053,0.481,3.022,1.669,2.531,3.156c-0.276,0.837-1.098,1.53-2.031,1.688c-2.086,0.353-3.575-0.707-4.281-3.031
			c-0.253-0.831-0.495-1.344-0.656-1.344c-0.21,0-0.25,0.48-0.25,2.5c0,2.044,0.033,2.5,0.25,2.5c0.146,0,0.44-0.228,0.656-0.531
			l0.406-0.562l0.75,0.5c0.692,0.458,0.937,0.5,2.469,0.5c1.542,0,1.759-0.029,2.469-0.5c1.873-1.24,2.198-3.753,0.719-5.438
			c-0.763-0.869-1.181-1.064-3.469-1.625c-1.599-0.392-2.048-0.567-2.469-1.031c-0.912-1.007-0.603-2.195,0.688-2.781
			c2.065-0.938,4.341-0.029,4.656,1.844c0.187,1.104,0.284,1.312,0.562,1.312c0.214,0,0.25-0.388,0.25-2.031
			C-189.3,183.027-189.342,182.401-189.55,182.318z M-164.832,182.318c-1.169-0.019-2.302,0.405-3.219,1.281l-0.531,0.469v-0.875
			c0-0.992,0.13-0.954-2.281-0.75c-1.304,0.11-1.406,0.153-1.406,0.531c0,0.343,0.13,0.444,0.781,0.531
			c0.431,0.058,0.868,0.258,1,0.438c0.306,0.417,0.364,13.749,0.062,14.312c-0.104,0.197-0.368,0.374-0.594,0.375
			c-0.776,0.005-1.25,0.209-1.25,0.562c0,0.327,0.193,0.344,2.969,0.344c2.798,0,2.938-0.007,2.938-0.344
			c0-0.286-0.187-0.407-0.969-0.531l-0.969-0.125l-0.062-2.688l-0.031-2.656l0.625,0.562c0.874,0.768,1.804,1.049,3.188,0.938
			c2.027-0.163,3.739-1.396,4.75-3.438c0.356-0.72,0.405-1.165,0.406-2.719c0.002-1.612-0.046-1.974-0.469-2.875
			C-160.878,183.565-162.881,182.35-164.832,182.318z M-74.707,182.318c-1.093-0.082-2.255,0.422-2.781,1.312
			c-0.176,0.298-0.383,0.563-0.438,0.562c-0.054,0-0.233-0.26-0.406-0.562c-1.043-1.833-4.083-1.653-5.469,0.312
			c-0.595,0.844-1.156,2.044-1.156,2.469c0,0.726,0.601,0.303,0.969-0.688c0.45-1.209,1.571-2.359,2.562-2.656
			c0.679-0.203,0.8-0.208,1.25,0.125c0.942,0.699,0.911,1.296-0.125,5.438c-1.002,4.003-1.421,4.954-2.438,5.375
			c-0.317,0.131-0.827,0.167-1.219,0.094l-0.656-0.125l0.469-0.438c0.514-0.476,0.636-1.333,0.25-1.719
			c-0.63-0.629-1.969,0.112-1.969,1.094c0,0.716,0.267,1.201,0.875,1.531c1.251,0.679,3.014,0.208,3.844-1.031
			c0.192-0.287,0.387-0.531,0.438-0.531c0.052,0,0.234,0.26,0.406,0.562c1.005,1.767,3.868,1.68,5.312-0.156
			c1.12-1.424,1.706-3.104,1.031-2.969c-0.165,0.033-0.462,0.478-0.656,1c-0.628,1.686-2.339,3.012-3.531,2.75
			c-0.612-0.134-1.062-0.856-1.062-1.688c0-0.897,1.632-7.296,2.062-8.062c0.552-0.982,1.45-1.5,2.281-1.344
			c0.748,0.141,0.771,0.167,0.281,0.656c-0.456,0.457-0.522,1.586-0.094,1.75c1.796,0.689,2.722-1.859,1-2.75
			C-73.993,182.466-74.342,182.345-74.707,182.318z M-139.3,182.349c-0.329,0.016-0.788,0.042-1.406,0.094
			c-1.304,0.11-1.406,0.153-1.406,0.531c0,0.343,0.13,0.444,0.781,0.531c0.431,0.058,0.868,0.258,1,0.438
			c0.302,0.412,0.358,8.572,0.062,9.125c-0.104,0.197-0.368,0.374-0.594,0.375c-0.776,0.005-1.25,0.209-1.25,0.562
			c0,0.327,0.193,0.344,2.969,0.344c2.798,0,2.938-0.007,2.938-0.344c0-0.286-0.187-0.375-0.969-0.5l-0.969-0.156l-0.031-3.5
			c-0.06-4.163,0.076-4.86,1.312-6c1.388-1.278,3.003-1.207,3.688,0.156c0.288,0.572,0.292,1.162,0.25,5l-0.031,4.344l-0.969,0.156
			c-0.781,0.125-0.969,0.214-0.969,0.5c0,0.336,0.14,0.344,2.938,0.344c2.813,0,2.969,0,2.969-0.344c0-0.274-0.16-0.384-0.688-0.469
			c-1.31-0.209-1.241,0.031-1.344-4.875c-0.085-4.129-0.114-4.495-0.469-4.969c-0.739-0.99-1.292-1.247-2.719-1.312
			c-1.642-0.075-2.683,0.387-3.594,1.594l-0.625,0.781v-1.188C-138.425,182.521-138.31,182.301-139.3,182.349z M-55.738,182.349
			c-0.694,0-0.886,0.075-1.656,0.875c-1.178,1.222-2.109,3.682-1.344,3.531c0.183-0.036,0.454-0.524,0.688-1.188
			c0.481-1.365,1.696-2.749,2.344-2.656c0.269,0.039,0.517,0.253,0.625,0.562c0.14,0.4-0.012,1.07-0.812,3.438
			c-0.858,2.539-1.021,3.124-1.031,4.406c-0.009,1.166,0.084,1.607,0.375,2.094c0.794,1.328,2.936,1.752,4.469,0.875
			c0.433-0.247,0.812-0.392,0.812-0.312c0,0.08-0.177,0.612-0.375,1.188c-0.745,2.166-2.321,3.894-3.75,4.125
			c-0.775,0.126-1.869-0.308-2.156-0.844c-0.183-0.342-0.154-0.375,0.25-0.375c0.504,0,1.219-0.774,1.219-1.312
			c0-0.471-0.526-0.906-1.062-0.906c-0.747,0-1.344,0.753-1.344,1.688c0,0.91,0.319,1.505,1.156,2.031
			c0.459,0.288,0.83,0.362,1.781,0.312c1.478-0.077,2.671-0.626,3.875-1.812c1.474-1.45,1.877-2.48,3.469-8.906
			c1.231-4.968,1.396-5.904,1.188-6.156c-0.356-0.429-1.058-0.362-1.375,0.125c-0.148,0.229-0.765,2.402-1.375,4.844l-1.125,4.438
			l-0.844,0.781c-1.485,1.354-2.899,1.271-3.406-0.219c-0.343-1.008-0.046-2.794,0.906-5.594c0.409-1.203,0.75-2.498,0.75-2.875
			C-53.488,183.07-54.26,182.349-55.738,182.349z M-103.175,182.88c0.974,0,1.938,1.203,1.938,2.406
			c0,0.493-0.498,2.716-1.312,5.812c-0.233,0.891-1.494,2.274-2.469,2.719c-1.89,0.864-2.819-0.143-2.625-2.875
			c0.107-1.5,0.798-4.276,1.344-5.344C-105.559,184.15-104.1,182.88-103.175,182.88z M-165.363,183.068
			c0.95-0.047,1.92,0.324,2.594,1.125c1.302,1.547,1.705,4.895,0.875,7.031c-0.444,1.145-1.48,2.344-2.375,2.719
			c-1.167,0.49-2.337,0.126-3.375-1l-0.75-0.781v-3.562c0-3.521-0.001-3.541,0.469-4.156
			C-167.263,183.576-166.312,183.116-165.363,183.068z M-68.175,191.787c-0.306,0.033-0.586,0.141-0.75,0.375
			c-0.409,0.585-0.371,1.379,0.094,1.844c0.319,0.32,0.54,0.389,1.219,0.312l0.844-0.094l-0.125,0.938
			c-0.154,1.167-0.699,2.391-1.438,3.312c-0.306,0.383-0.499,0.774-0.438,0.875c0.062,0.101,0.194,0.188,0.281,0.188
			c0.284,0,1.168-1.181,1.656-2.219c0.407-0.863,0.469-1.278,0.469-2.719c0.001-1.435-0.046-1.776-0.375-2.219
			C-67.071,191.931-67.667,191.733-68.175,191.787z M-129.457,198.099c-0.349,0.033-0.438,0.129-0.438,0.25
			c0,0.187,0.157,0.281,0.5,0.281c0.286,0,0.651,0.092,0.812,0.219c0.162,0.127,0.895,1.657,1.625,3.406l1.344,3.188l-0.438,1.906
			c-0.474,2.121-0.767,2.562-1.719,2.562c-0.628,0-0.96,0.197-0.719,0.438c0.201,0.201,5.156,0.051,5.156-0.156
			c0-0.102-0.331-0.218-0.719-0.25c-0.388-0.032-0.729-0.179-0.781-0.312c-0.132-0.346,0.654-3.61,1-4.156
			c0.159-0.251,1.433-1.709,2.844-3.25c2.435-2.658,3.068-3.22,4.25-3.562c1.062-0.307,0.598-0.51-1.281-0.562
			c-1.538-0.042-1.906,0.006-1.906,0.219c0,0.145,0.172,0.291,0.375,0.344c0.204,0.053,0.375,0.246,0.375,0.406
			c0,0.267-4.577,5.469-4.812,5.469c-0.056,0-0.612-1.27-1.25-2.812c-1.237-2.99-1.245-3.087-0.156-3.094
			c0.337-0.001,0.487-0.102,0.438-0.25c-0.055-0.166-0.753-0.244-2.5-0.281C-128.499,198.077-129.108,198.067-129.457,198.099z
			 M-134.8,200.287c-2.729,0-3.821,0.326-5.156,1.5c-3.255,2.866-2.144,8.028,2.062,9.531c0.409,0.146,1.587,0.245,3.031,0.25
			c2.003,0.007,2.403-0.03,2.5-0.281c0.192-0.5-0.319-0.649-2.625-0.656c-1.826-0.005-2.378-0.065-3.062-0.375
			c-1.411-0.638-2.497-1.905-2.844-3.344l-0.125-0.531h4.281c3.739,0,4.275-0.021,4.375-0.281c0.062-0.163-0.015-0.378-0.156-0.469
			c-0.142-0.09-2.11-0.154-4.375-0.156c-2.264-0.001-4.125-0.046-4.125-0.094c0-0.513,0.89-2.216,1.438-2.75
			c1.195-1.163,2.054-1.398,4.594-1.406c2.306-0.007,2.817-0.155,2.625-0.656C-132.459,200.318-132.852,200.287-134.8,200.287z
			 M-150.457,202.505c-0.74,0.078-1.522,0.69-2.031,1.688c-0.419,0.823-0.466,1.281-0.125,1.281c0.133,0,0.415-0.409,0.625-0.906
			c0.401-0.949,1.152-1.619,1.625-1.438c0.397,0.153,0.366,0.584-0.25,2.406c-0.299,0.885-0.591,1.968-0.656,2.406
			c-0.156,1.044,0.255,2.021,1,2.406c0.706,0.365,2.06,0.388,2.531,0.031c0.601-0.454,0.634-0.321,0.25,0.688
			c-0.708,1.865-2.249,2.864-3.594,2.344l-0.562-0.219l0.531-0.25c0.429-0.226,0.485-0.388,0.438-0.875
			c-0.044-0.456-0.135-0.609-0.469-0.656c-0.612-0.086-1.156,0.466-1.156,1.188c0,0.451,0.151,0.721,0.594,1.094
			c0.526,0.442,0.718,0.505,1.656,0.438c1.28-0.092,2.562-0.83,3.406-1.938c0.467-0.611,0.763-1.478,1.625-4.812
			c0.581-2.246,1.001-4.243,0.938-4.406c-0.136-0.355-0.88-0.396-1.156-0.062c-0.108,0.13-0.502,1.508-0.875,3.031
			c-0.634,2.591-0.708,2.789-1.375,3.438c-1.476,1.436-2.854,0.561-2.406-1.531c0.103-0.478,0.398-1.408,0.656-2.094
			c0.594-1.577,0.582-2.23,0-2.812C-149.588,202.592-150.012,202.459-150.457,202.505z M-161.175,203.255
			c-1.634,0-2.031,0.036-2.031,0.25c0,0.146,0.172,0.311,0.375,0.375c0.673,0.213,0.397,0.735-1.344,2.469l-1.75,1.719l-0.875-1.875
			c-0.863-1.8-0.895-1.913-0.562-2.156c0.19-0.139,0.504-0.25,0.688-0.25c0.185,0,0.312-0.125,0.312-0.281
			c0-0.242-0.353-0.263-2.438-0.219c-1.746,0.037-2.444,0.116-2.5,0.281c-0.046,0.141,0.081,0.217,0.344,0.219
			c1.07,0.006,1.208,0.154,2.469,2.844c0.675,1.441,1.222,2.709,1.219,2.812c-0.002,0.104-1.077,1.24-2.375,2.531
			c-2.315,2.305-3.438,3.084-4.438,3.094c-0.245,0.002-0.406,0.118-0.406,0.281c0,0.231,0.357,0.281,2.125,0.281
			c1.688,0,2.125-0.047,2.125-0.25c0-0.141-0.171-0.291-0.375-0.344c-0.694-0.182-0.36-0.779,1.656-2.906l2.031-2.125l1.031,2.125
			c0.565,1.169,1.03,2.243,1.031,2.406c0.001,0.175-0.255,0.372-0.594,0.469c-1.204,0.346-0.594,0.542,1.844,0.594
			c2.099,0.044,2.438,0.023,2.438-0.219c0-0.187-0.188-0.312-0.531-0.312c-0.286,0-0.645-0.091-0.812-0.219
			c-0.167-0.127-0.919-1.559-1.688-3.188l-1.406-2.969l2.281-2.25c1.897-1.872,2.409-2.262,3.094-2.438
			c1.226-0.314,1.313-0.359,1.188-0.562C-159.116,203.337-160.016,203.255-161.175,203.255z M-179.207,205.474
			c-2.729,0-3.821,0.294-5.156,1.469c-3.255,2.866-2.144,8.06,2.062,9.562c0.409,0.146,1.618,0.214,3.062,0.219
			c2.003,0.007,2.372-0.03,2.469-0.281c0.192-0.5-0.319-0.618-2.625-0.625c-1.826-0.005-2.378-0.065-3.062-0.375
			c-1.411-0.638-2.497-1.936-2.844-3.375l-0.125-0.5h4.281c3.739,0,4.275-0.021,4.375-0.281c0.062-0.163-0.015-0.378-0.156-0.469
			c-0.142-0.09-2.11-0.186-4.375-0.188c-2.264-0.001-4.094-0.015-4.094-0.062c0-0.513,0.858-2.216,1.406-2.75
			c1.195-1.163,2.054-1.429,4.594-1.438c2.306-0.007,2.817-0.124,2.625-0.625C-176.865,205.506-177.258,205.474-179.207,205.474z
			 M-190.675,207.693c-0.447,0.036-0.902,0.234-1.312,0.594c-0.6,0.527-0.687,0.53-0.844,0.25c-0.47-0.839-2.032-1.075-3.125-0.5
			c-0.644,0.339-1.844,1.859-1.844,2.344c0,0.427,0.539,0.286,0.719-0.188c0.31-0.814,1.295-1.749,1.969-1.875
			c0.743-0.139,1.375,0.293,1.375,0.938c0,0.812-1.089,4.782-1.438,5.25c-0.415,0.557-1.134,0.864-1.594,0.688
			c-0.289-0.111-0.31-0.127-0.031-0.406c0.443-0.443,0.319-1.268-0.219-1.344c-1.063-0.15-1.541,1.304-0.656,2
			c0.824,0.648,2.479,0.369,3-0.5c0.185-0.308,0.222-0.308,0.406,0c0.481,0.804,2.112,1.136,3.094,0.625
			c1.13-0.587,2.401-2.719,1.625-2.719c-0.144,0-0.437,0.39-0.656,0.844c-0.7,1.448-2.288,2.037-2.906,1.094
			c-0.293-0.448-0.264-0.595,0.312-3c0.681-2.837,1.108-3.562,2.188-3.562c0.626,0,0.724,0.196,0.281,0.562
			c-0.159,0.133-0.249,0.453-0.219,0.719c0.042,0.361,0.165,0.489,0.531,0.531c1.071,0.125,1.489-1.264,0.594-1.969
			C-189.802,207.772-190.227,207.657-190.675,207.693z"/>
	</g>
</g>
</svg>
